<?xml version="1.0" standalone="no"?>
<!DOCTYPE svg PUBLIC "-//W3C//DTD SVG 20010904//EN"
 "http://www.w3.org/TR/2001/REC-SVG-20010904/DTD/svg10.dtd">
<svg version="1.0" xmlns="http://www.w3.org/2000/svg"
 width="1171.000000pt" height="1171.000000pt" viewBox="0 0 1171.000000 1171.000000"
 preserveAspectRatio="xMidYMid meet">
<metadata>
Created by potrace 1.11, written by Peter Selinger 2001-2013
</metadata>
<g transform="translate(0.000000,1171.000000) scale(0.100000,-0.100000)"
fill="#000000" stroke="none">
<path d="M1328 11285 c-3 -3 -301 -18 -351 -18 -20 1 -31 -6 -37 -21 -13 -33
-33 -1002 -20 -1025 7 -15 24 -21 72 -25 35 -2 117 -10 183 -16 66 -5 210 -17
321 -25 111 -8 268 -25 350 -39 82 -14 178 -28 214 -31 36 -4 97 -15 135 -25
39 -10 111 -23 160 -29 50 -6 124 -20 165 -32 41 -11 104 -26 140 -34 36 -8
92 -21 125 -30 33 -8 94 -24 135 -35 85 -21 187 -51 275 -79 33 -11 107 -34
165 -51 58 -17 125 -40 150 -50 25 -10 101 -38 170 -63 69 -25 161 -59 205
-77 44 -18 98 -39 120 -47 37 -13 72 -28 200 -88 28 -12 79 -36 115 -53 148
-68 510 -252 532 -269 7 -6 47 -28 88 -50 41 -22 91 -49 110 -61 19 -11 57
-33 83 -49 151 -88 364 -228 572 -373 127 -89 292 -214 388 -292 38 -32 72
-58 76 -58 3 0 24 -17 46 -38 22 -20 56 -49 75 -63 19 -15 49 -40 67 -56 17
-16 49 -44 70 -63 321 -279 785 -754 1020 -1045 290 -359 373 -471 610 -825
117 -175 267 -418 302 -487 7 -16 24 -44 36 -63 22 -33 51 -87 172 -319 30
-57 58 -111 63 -120 12 -22 91 -192 129 -276 18 -38 39 -83 47 -100 9 -16 31
-70 51 -120 19 -49 38 -94 43 -100 4 -5 13 -26 19 -46 6 -20 20 -53 31 -74 11
-22 20 -46 20 -54 0 -7 9 -32 19 -55 10 -23 30 -72 44 -111 13 -38 30 -86 37
-105 7 -19 19 -55 27 -80 8 -25 23 -65 32 -90 31 -77 130 -403 166 -545 9 -33
28 -109 44 -170 16 -60 32 -132 36 -160 4 -27 13 -64 21 -82 7 -18 16 -54 19
-80 4 -26 15 -79 25 -118 10 -38 21 -101 25 -140 4 -38 11 -80 17 -94 5 -14
13 -61 19 -106 5 -44 16 -110 24 -146 8 -37 17 -107 20 -155 3 -49 12 -129 20
-179 8 -49 19 -151 25 -225 6 -74 15 -178 20 -230 5 -52 10 -269 10 -482 l0
-388 23 -15 c20 -12 91 -17 398 -26 206 -6 401 -9 434 -7 l59 3 14 45 c18 62
138 535 148 585 2 11 8 43 14 71 6 28 13 61 15 75 3 13 7 35 10 49 6 32 23
125 30 170 3 19 10 60 15 90 28 161 35 259 35 480 -1 180 -9 382 -20 505 -14
149 -36 363 -40 385 -2 14 -6 52 -10 85 -4 32 -8 66 -10 75 -1 8 -6 42 -10 75
-4 32 -9 68 -11 80 -2 11 -6 38 -9 60 -13 108 -21 157 -66 435 -22 134 -42
247 -45 251 -2 4 -6 24 -8 45 -2 22 -11 73 -19 114 -8 41 -18 91 -21 110 -8
45 -9 50 -40 200 -14 69 -27 136 -30 150 -2 14 -18 86 -35 160 -16 74 -33 149
-36 165 -3 17 -8 41 -11 55 -3 14 -10 43 -16 65 -5 22 -12 51 -15 65 -6 34
-151 608 -163 645 -6 17 -19 64 -31 105 -121 439 -241 772 -383 1065 -46 94
-83 172 -82 175 0 3 -9 19 -20 35 -12 17 -41 71 -65 120 -164 333 -434 775
-662 1085 -67 90 -240 311 -269 341 -7 8 -42 48 -78 89 -195 226 -454 479
-700 685 -52 44 -97 82 -100 85 -3 3 -23 19 -45 36 -45 33 -72 54 -89 69 -29
27 -305 222 -426 300 -207 135 -224 146 -385 236 -82 47 -168 95 -190 107 -45
26 -431 217 -515 255 -30 14 -77 35 -104 47 -129 58 -423 172 -512 198 -88 26
-251 66 -324 78 -14 2 -35 7 -48 9 -27 7 -177 33 -230 41 -20 3 -48 7 -62 10
-14 2 -45 7 -70 10 -25 3 -54 8 -65 10 -11 2 -40 7 -65 10 -25 3 -58 8 -75 10
-16 3 -52 7 -80 10 -27 2 -61 6 -74 9 -13 2 -49 7 -80 10 -31 3 -72 8 -91 11
-19 3 -55 8 -80 10 -25 2 -63 6 -85 8 -22 3 -67 8 -100 11 -33 3 -76 8 -95 10
-19 2 -71 6 -115 10 -44 4 -92 9 -106 11 -15 2 -60 6 -102 9 -130 8 -220 15
-267 20 -25 2 -97 7 -160 10 -63 4 -142 8 -175 10 -33 2 -114 7 -180 10 -66 4
-160 9 -210 12 -102 5 -1272 13 -1277 8z"/>
<path d="M875 8307 c-14 -22 -19 -132 -39 -914 -18 -678 -21 -894 -12 -913 11
-25 12 -25 216 -36 113 -6 223 -16 245 -22 22 -6 112 -20 200 -32 88 -12 189
-30 225 -40 36 -10 92 -22 125 -25 33 -4 76 -13 95 -21 19 -8 66 -22 105 -30
38 -9 93 -24 120 -34 28 -10 102 -35 165 -54 63 -20 135 -45 160 -56 25 -11
88 -35 140 -55 52 -20 120 -47 150 -61 30 -15 84 -40 120 -56 74 -34 81 -37
247 -124 67 -35 138 -74 157 -86 19 -13 54 -34 77 -48 52 -31 230 -146 244
-158 6 -5 35 -25 65 -45 84 -56 353 -267 449 -353 130 -115 319 -301 442 -435
146 -160 369 -439 450 -564 29 -45 43 -66 96 -145 92 -138 133 -204 133 -213
0 -6 6 -18 14 -26 16 -19 73 -123 172 -317 71 -140 95 -192 154 -334 17 -41
37 -87 45 -102 8 -14 15 -31 15 -38 0 -6 11 -42 26 -78 51 -135 73 -199 99
-287 15 -49 35 -115 45 -145 10 -30 30 -109 45 -175 15 -66 33 -140 41 -165 7
-25 18 -76 24 -115 6 -38 17 -92 25 -119 8 -27 15 -75 15 -105 0 -31 7 -83 15
-116 7 -33 19 -123 25 -200 6 -77 15 -175 21 -217 5 -42 10 -173 9 -292 0
-213 0 -216 23 -230 30 -20 1713 -66 1752 -48 25 12 25 12 25 155 0 317 -35
850 -71 1077 -5 36 -19 124 -29 195 -22 149 -57 342 -65 355 -3 4 -12 46 -20
92 -9 45 -22 100 -30 121 -8 20 -15 50 -15 65 0 15 -9 59 -21 97 -11 39 -32
108 -46 155 -58 202 -75 257 -89 288 -8 18 -19 54 -24 80 -6 26 -17 61 -24 77
-13 27 -27 64 -98 255 -11 30 -28 73 -39 95 -10 22 -34 79 -52 126 -19 47 -39
94 -45 105 -6 10 -25 51 -42 89 -35 76 -159 326 -207 415 -26 50 -74 134 -143
255 -70 122 -283 445 -380 579 -36 48 -73 99 -82 113 -9 14 -20 29 -25 32 -4
3 -33 40 -64 81 -61 81 -134 169 -273 331 -97 113 -535 554 -630 634 -56 48
-157 134 -202 172 -68 59 -332 263 -383 295 -14 9 -31 21 -36 25 -33 29 -201
142 -324 218 -45 28 -100 62 -124 78 -23 15 -60 36 -82 47 -22 11 -69 38 -105
59 -36 22 -105 60 -155 86 -49 25 -97 50 -105 55 -8 5 -78 39 -155 75 -77 37
-156 75 -176 86 -20 10 -43 19 -50 19 -8 0 -36 11 -64 24 -73 36 -174 76 -219
87 -21 5 -52 17 -68 25 -35 18 -147 58 -238 84 -36 11 -94 29 -130 41 -36 11
-85 27 -110 35 -149 49 -455 119 -745 173 -115 21 -198 31 -450 56 -82 8 -181
19 -220 24 -38 5 -120 12 -182 16 -111 7 -111 7 -128 -18z"/>
<path d="M2310 4529 c-143 -14 -326 -61 -455 -116 -198 -85 -308 -151 -470
-284 -121 -99 -286 -283 -360 -402 -15 -23 -42 -67 -61 -97 -19 -30 -34 -60
-34 -66 0 -6 -6 -17 -14 -23 -8 -7 -17 -24 -21 -39 -3 -15 -17 -49 -30 -77
-84 -180 -132 -391 -146 -634 -6 -97 -7 -219 -4 -271 9 -124 47 -326 79 -420
75 -220 81 -234 159 -375 99 -177 225 -332 407 -498 41 -37 154 -123 186 -141
16 -9 57 -34 91 -55 35 -22 73 -43 85 -47 13 -3 41 -17 64 -30 22 -13 47 -24
55 -24 8 0 31 -9 51 -19 20 -11 98 -36 175 -56 112 -29 170 -38 303 -46 91 -6
210 -7 265 -4 155 11 419 73 505 119 14 7 42 19 63 26 68 22 233 117 336 195
295 224 516 518 633 845 11 30 23 60 28 65 13 17 71 274 81 359 5 45 9 171 9
282 0 171 -4 221 -25 340 -14 76 -32 155 -39 174 -8 19 -21 55 -29 80 -78 232
-180 415 -338 606 -108 130 -272 277 -414 371 -55 36 -262 143 -278 143 -7 0
-29 9 -50 20 -21 11 -102 36 -180 56 -117 29 -172 37 -312 44 -190 11 -196 11
-315 -1z"/>
</g>
</svg>
